<svg width="33" height="33" viewBox="0 0 33 33" fill="none" xmlns="http://www.w3.org/2000/svg">
<circle cx="16" cy="17" r="15" fill="#D9D9D9"/>
<circle cx="16.5" cy="16.5" r="16" fill="#D9D9D9" stroke="#919191"/>
<path d="M6.496 6.108C6.944 6.156 7.448 6.192 8.008 6.216C8.568 6.24 9.172 6.252 9.82 6.252C10.22 6.252 10.636 6.244 11.068 6.228C11.508 6.212 11.932 6.192 12.34 6.168C12.756 6.144 13.12 6.116 13.432 6.084V8.028C13.152 8.052 12.804 8.076 12.388 8.1C11.972 8.124 11.54 8.144 11.092 8.16C10.644 8.168 10.224 8.172 9.832 8.172C9.192 8.172 8.6 8.16 8.056 8.136C7.512 8.104 6.992 8.072 6.496 8.04V6.108ZM7.804 11.328C7.756 11.528 7.712 11.72 7.672 11.904C7.64 12.088 7.624 12.276 7.624 12.468C7.624 12.804 7.796 13.088 8.14 13.32C8.484 13.544 9.06 13.656 9.868 13.656C10.404 13.656 10.924 13.636 11.428 13.596C11.932 13.556 12.412 13.5 12.868 13.428C13.332 13.356 13.756 13.272 14.14 13.176L14.152 15.24C13.768 15.32 13.356 15.388 12.916 15.444C12.476 15.508 12.008 15.556 11.512 15.588C11.024 15.62 10.5 15.636 9.94 15.636C8.972 15.636 8.168 15.528 7.528 15.312C6.896 15.104 6.424 14.8 6.112 14.4C5.808 13.992 5.656 13.5 5.656 12.924C5.656 12.556 5.684 12.224 5.74 11.928C5.804 11.632 5.856 11.376 5.896 11.16L7.804 11.328Z" fill="#55C235"/>
<path d="M25.36 5.496C25.352 5.552 25.34 5.648 25.324 5.784C25.316 5.92 25.308 6.064 25.3 6.216C25.292 6.368 25.284 6.504 25.276 6.624C25.268 6.904 25.26 7.164 25.252 7.404C25.252 7.636 25.248 7.856 25.24 8.064C25.24 8.272 25.236 8.48 25.228 8.688C25.22 9.064 25.208 9.452 25.192 9.852C25.176 10.244 25.156 10.608 25.132 10.944C25.108 11.272 25.076 11.536 25.036 11.736C24.964 12.08 24.84 12.308 24.664 12.42C24.496 12.532 24.248 12.588 23.92 12.588C23.784 12.588 23.592 12.58 23.344 12.564C23.096 12.54 22.848 12.512 22.6 12.48C22.352 12.448 22.148 12.42 21.988 12.396L22.024 10.8C22.2 10.832 22.392 10.864 22.6 10.896C22.816 10.928 22.976 10.944 23.08 10.944C23.184 10.944 23.26 10.928 23.308 10.896C23.364 10.864 23.396 10.796 23.404 10.692C23.428 10.54 23.444 10.36 23.452 10.152C23.46 9.936 23.468 9.7 23.476 9.444C23.484 9.188 23.492 8.928 23.5 8.664C23.5 8.456 23.5 8.252 23.5 8.052C23.5 7.844 23.5 7.628 23.5 7.404C23.5 7.18 23.5 6.948 23.5 6.708C23.5 6.596 23.492 6.464 23.476 6.312C23.468 6.152 23.456 5.996 23.44 5.844C23.432 5.692 23.42 5.576 23.404 5.496H25.36ZM20.644 5.844C20.612 6.076 20.588 6.296 20.572 6.504C20.564 6.704 20.56 6.952 20.56 7.248C20.56 7.44 20.556 7.708 20.548 8.052C20.548 8.388 20.544 8.76 20.536 9.168C20.536 9.576 20.532 9.988 20.524 10.404C20.524 10.82 20.524 11.204 20.524 11.556C20.524 11.9 20.528 12.18 20.536 12.396C20.544 12.676 20.564 12.9 20.596 13.068C20.636 13.236 20.716 13.364 20.836 13.452C20.956 13.54 21.136 13.6 21.376 13.632C21.616 13.656 21.94 13.668 22.348 13.668C22.716 13.668 23.116 13.656 23.548 13.632C23.988 13.6 24.416 13.56 24.832 13.512C25.256 13.456 25.628 13.4 25.948 13.344L25.876 15.336C25.612 15.368 25.284 15.396 24.892 15.42C24.5 15.452 24.092 15.476 23.668 15.492C23.252 15.516 22.86 15.528 22.492 15.528C21.668 15.528 21.008 15.48 20.512 15.384C20.016 15.296 19.64 15.144 19.384 14.928C19.128 14.712 18.956 14.424 18.868 14.064C18.78 13.696 18.728 13.24 18.712 12.696C18.712 12.52 18.708 12.288 18.7 12C18.7 11.712 18.7 11.392 18.7 11.04C18.7 10.68 18.7 10.316 18.7 9.948C18.7 9.572 18.7 9.212 18.7 8.868C18.7 8.524 18.7 8.22 18.7 7.956C18.7 7.692 18.7 7.492 18.7 7.356C18.7 7.068 18.688 6.8 18.664 6.552C18.648 6.304 18.624 6.068 18.592 5.844H20.644ZM16.396 8.46C16.556 8.46 16.78 8.452 17.068 8.436C17.364 8.42 17.688 8.396 18.04 8.364C18.272 8.34 18.62 8.308 19.084 8.268C19.548 8.22 20.076 8.172 20.668 8.124C21.26 8.068 21.876 8.012 22.516 7.956C23.156 7.892 23.768 7.836 24.352 7.788C24.944 7.74 25.464 7.7 25.912 7.668C26.08 7.652 26.284 7.636 26.524 7.62C26.764 7.604 26.984 7.588 27.184 7.572V9.336C27.112 9.328 26.992 9.328 26.824 9.336C26.664 9.336 26.496 9.34 26.32 9.348C26.152 9.348 26.012 9.352 25.9 9.36C25.596 9.368 25.224 9.388 24.784 9.42C24.344 9.452 23.872 9.492 23.368 9.54C22.864 9.58 22.352 9.628 21.832 9.684C21.312 9.732 20.812 9.784 20.332 9.84C19.86 9.888 19.432 9.932 19.048 9.972C18.672 10.012 18.376 10.044 18.16 10.068C18.032 10.084 17.864 10.108 17.656 10.14C17.448 10.172 17.244 10.204 17.044 10.236C16.844 10.26 16.692 10.28 16.588 10.296L16.396 8.46Z" fill="black"/>
<path d="M11.284 18.756C11.196 19.364 11.088 20.012 10.96 20.7C10.832 21.388 10.652 22.108 10.42 22.86C10.188 23.66 9.912 24.36 9.592 24.96C9.272 25.56 8.912 26.028 8.512 26.364C8.12 26.7 7.688 26.868 7.216 26.868C6.72 26.868 6.272 26.708 5.872 26.388C5.48 26.06 5.168 25.62 4.936 25.068C4.712 24.508 4.6 23.888 4.6 23.208C4.6 22.496 4.744 21.824 5.032 21.192C5.32 20.552 5.72 19.988 6.232 19.5C6.744 19.012 7.344 18.628 8.032 18.348C8.72 18.068 9.464 17.928 10.264 17.928C11.032 17.928 11.72 18.052 12.328 18.3C12.944 18.54 13.468 18.88 13.9 19.32C14.34 19.76 14.676 20.276 14.908 20.868C15.14 21.452 15.256 22.084 15.256 22.764C15.256 23.604 15.088 24.364 14.752 25.044C14.416 25.716 13.908 26.28 13.228 26.736C12.548 27.184 11.688 27.496 10.648 27.672L9.544 25.944C9.8 25.912 10.016 25.88 10.192 25.848C10.368 25.808 10.544 25.768 10.72 25.728C11.104 25.632 11.452 25.496 11.764 25.32C12.076 25.144 12.344 24.928 12.568 24.672C12.792 24.416 12.964 24.124 13.084 23.796C13.204 23.46 13.264 23.096 13.264 22.704C13.264 22.24 13.196 21.82 13.06 21.444C12.932 21.068 12.736 20.744 12.472 20.472C12.216 20.2 11.9 19.992 11.524 19.848C11.148 19.704 10.716 19.632 10.228 19.632C9.604 19.632 9.056 19.744 8.584 19.968C8.12 20.184 7.732 20.468 7.42 20.82C7.108 21.164 6.872 21.532 6.712 21.924C6.56 22.316 6.484 22.68 6.484 23.016C6.484 23.36 6.52 23.652 6.592 23.892C6.664 24.124 6.756 24.3 6.868 24.42C6.988 24.54 7.12 24.6 7.264 24.6C7.424 24.6 7.572 24.52 7.708 24.36C7.852 24.2 7.988 23.964 8.116 23.652C8.252 23.332 8.392 22.94 8.536 22.476C8.72 21.908 8.876 21.296 9.004 20.64C9.132 19.976 9.224 19.328 9.28 18.696L11.284 18.756Z" fill="black"/>
<path d="M24.748 17.844C24.804 18.228 24.884 18.628 24.988 19.044C25.092 19.46 25.236 19.888 25.42 20.328C25.612 20.76 25.86 21.196 26.164 21.636C26.476 22.076 26.864 22.516 27.328 22.956L26.164 24.636C25.732 24.14 25.324 23.576 24.94 22.944C24.564 22.312 24.208 21.612 23.872 20.844C23.544 20.076 23.228 19.244 22.924 18.348L24.748 17.844ZM16.624 18.42C16.856 18.436 17.088 18.436 17.32 18.42C17.616 18.404 17.948 18.38 18.316 18.348C18.692 18.308 19.068 18.264 19.444 18.216C19.828 18.16 20.184 18.1 20.512 18.036C20.84 17.964 21.108 17.892 21.316 17.82L21.868 19.428C21.78 19.46 21.684 19.5 21.58 19.548C21.476 19.596 21.376 19.652 21.28 19.716C21.112 19.844 20.924 20.016 20.716 20.232C20.508 20.44 20.296 20.688 20.08 20.976C19.872 21.256 19.68 21.568 19.504 21.912C19.336 22.256 19.196 22.628 19.084 23.028C18.98 23.428 18.928 23.848 18.928 24.288C18.928 24.6 18.976 24.868 19.072 25.092C19.168 25.316 19.3 25.5 19.468 25.644C19.636 25.788 19.836 25.896 20.068 25.968C20.308 26.04 20.564 26.076 20.836 26.076C21.724 26.076 22.392 25.768 22.84 25.152C23.296 24.536 23.54 23.668 23.572 22.548C23.604 21.428 23.428 20.116 23.044 18.612L24.748 21.288C24.884 21.912 24.964 22.544 24.988 23.184C25.02 23.824 24.972 24.436 24.844 25.02C24.716 25.596 24.492 26.112 24.172 26.568C23.852 27.024 23.416 27.384 22.864 27.648C22.312 27.912 21.624 28.044 20.8 28.044C20.312 28.044 19.844 27.976 19.396 27.84C18.948 27.704 18.548 27.5 18.196 27.228C17.844 26.956 17.564 26.612 17.356 26.196C17.156 25.772 17.056 25.276 17.056 24.708C17.056 24.26 17.092 23.84 17.164 23.448C17.244 23.048 17.356 22.664 17.5 22.296C17.644 21.928 17.824 21.56 18.04 21.192C18.264 20.824 18.52 20.444 18.808 20.052C18.688 20.052 18.544 20.06 18.376 20.076C18.208 20.092 18.044 20.108 17.884 20.124C17.724 20.14 17.592 20.156 17.488 20.172C17.36 20.188 17.24 20.204 17.128 20.22C17.024 20.236 16.9 20.26 16.756 20.292L16.624 18.42ZM25.84 17.184C25.912 17.36 25.988 17.556 26.068 17.772C26.148 17.98 26.224 18.188 26.296 18.396C26.368 18.596 26.424 18.78 26.464 18.948L25.42 19.284C25.364 19.084 25.3 18.884 25.228 18.684C25.164 18.476 25.096 18.272 25.024 18.072C24.952 17.872 24.872 17.684 24.784 17.508L25.84 17.184ZM27.16 16.74C27.296 17.004 27.424 17.304 27.544 17.64C27.664 17.976 27.764 18.264 27.844 18.504L26.788 18.84C26.708 18.56 26.612 18.264 26.5 17.952C26.388 17.632 26.268 17.34 26.14 17.076L27.16 16.74Z" fill="#E9514E"/>
<path d="M25.9286 6.62043L29.9976 8.10142L26.6805 10.8848L25.9286 6.62043Z" fill="black"/>
</svg>
