<svg width="49" height="14" viewBox="0 0 49 14" fill="none" xmlns="http://www.w3.org/2000/svg">
<path d="M45.124 2.104C45.18 2.488 45.26 2.888 45.364 3.304C45.468 3.72 45.612 4.148 45.796 4.588C45.988 5.02 46.236 5.456 46.54 5.896C46.852 6.336 47.24 6.776 47.704 7.216L46.54 8.896C46.108 8.4 45.7 7.836 45.316 7.204C44.94 6.572 44.584 5.872 44.248 5.104C43.92 4.336 43.604 3.504 43.3 2.608L45.124 2.104ZM37 2.68C37.232 2.696 37.464 2.696 37.696 2.68C37.992 2.664 38.324 2.64 38.692 2.608C39.068 2.568 39.444 2.524 39.82 2.476C40.204 2.42 40.56 2.36 40.888 2.296C41.216 2.224 41.484 2.152 41.692 2.08L42.244 3.688C42.156 3.72 42.06 3.76 41.956 3.808C41.852 3.856 41.752 3.912 41.656 3.976C41.488 4.104 41.3 4.276 41.092 4.492C40.884 4.7 40.672 4.948 40.456 5.236C40.248 5.516 40.056 5.828 39.88 6.172C39.712 6.516 39.572 6.888 39.46 7.288C39.356 7.688 39.304 8.108 39.304 8.548C39.304 8.86 39.352 9.128 39.448 9.352C39.544 9.576 39.676 9.76 39.844 9.904C40.012 10.048 40.212 10.156 40.444 10.228C40.684 10.3 40.94 10.336 41.212 10.336C42.1 10.336 42.768 10.028 43.216 9.412C43.672 8.796 43.916 7.928 43.948 6.808C43.98 5.688 43.804 4.376 43.42 2.872L45.124 5.548C45.26 6.172 45.34 6.804 45.364 7.444C45.396 8.084 45.348 8.696 45.22 9.28C45.092 9.856 44.868 10.372 44.548 10.828C44.228 11.284 43.792 11.644 43.24 11.908C42.688 12.172 42 12.304 41.176 12.304C40.688 12.304 40.22 12.236 39.772 12.1C39.324 11.964 38.924 11.76 38.572 11.488C38.22 11.216 37.94 10.872 37.732 10.456C37.532 10.032 37.432 9.536 37.432 8.968C37.432 8.52 37.468 8.1 37.54 7.708C37.62 7.308 37.732 6.924 37.876 6.556C38.02 6.188 38.2 5.82 38.416 5.452C38.64 5.084 38.896 4.704 39.184 4.312C39.064 4.312 38.92 4.32 38.752 4.336C38.584 4.352 38.42 4.368 38.26 4.384C38.1 4.4 37.968 4.416 37.864 4.432C37.736 4.448 37.616 4.464 37.504 4.48C37.4 4.496 37.276 4.52 37.132 4.552L37 2.68ZM46.216 1.444C46.288 1.62 46.364 1.816 46.444 2.032C46.524 2.24 46.6 2.448 46.672 2.656C46.744 2.856 46.8 3.04 46.84 3.208L45.796 3.544C45.74 3.344 45.676 3.144 45.604 2.944C45.54 2.736 45.472 2.532 45.4 2.332C45.328 2.132 45.248 1.944 45.16 1.768L46.216 1.444ZM47.536 1C47.672 1.264 47.8 1.564 47.92 1.9C48.04 2.236 48.14 2.524 48.22 2.764L47.164 3.1C47.084 2.82 46.988 2.524 46.876 2.212C46.764 1.892 46.644 1.6 46.516 1.336L47.536 1Z" fill="#E9514E"/>
<path d="M31.204 3.756C31.116 4.364 31.008 5.012 30.88 5.7C30.752 6.388 30.572 7.108 30.34 7.86C30.108 8.66 29.832 9.36 29.512 9.96C29.192 10.56 28.832 11.028 28.432 11.364C28.04 11.7 27.608 11.868 27.136 11.868C26.64 11.868 26.192 11.708 25.792 11.388C25.4 11.06 25.088 10.62 24.856 10.068C24.632 9.508 24.52 8.888 24.52 8.208C24.52 7.496 24.664 6.824 24.952 6.192C25.24 5.552 25.64 4.988 26.152 4.5C26.664 4.012 27.264 3.628 27.952 3.348C28.64 3.068 29.384 2.928 30.184 2.928C30.952 2.928 31.64 3.052 32.248 3.3C32.864 3.54 33.388 3.88 33.82 4.32C34.26 4.76 34.596 5.276 34.828 5.868C35.06 6.452 35.176 7.084 35.176 7.764C35.176 8.604 35.008 9.364 34.672 10.044C34.336 10.716 33.828 11.28 33.148 11.736C32.468 12.184 31.608 12.496 30.568 12.672L29.464 10.944C29.72 10.912 29.936 10.88 30.112 10.848C30.288 10.808 30.464 10.768 30.64 10.728C31.024 10.632 31.372 10.496 31.684 10.32C31.996 10.144 32.264 9.928 32.488 9.672C32.712 9.416 32.884 9.124 33.004 8.796C33.124 8.46 33.184 8.096 33.184 7.704C33.184 7.24 33.116 6.82 32.98 6.444C32.852 6.068 32.656 5.744 32.392 5.472C32.136 5.2 31.82 4.992 31.444 4.848C31.068 4.704 30.636 4.632 30.148 4.632C29.524 4.632 28.976 4.744 28.504 4.968C28.04 5.184 27.652 5.468 27.34 5.82C27.028 6.164 26.792 6.532 26.632 6.924C26.48 7.316 26.404 7.68 26.404 8.016C26.404 8.36 26.44 8.652 26.512 8.892C26.584 9.124 26.676 9.3 26.788 9.42C26.908 9.54 27.04 9.6 27.184 9.6C27.344 9.6 27.492 9.52 27.628 9.36C27.772 9.2 27.908 8.964 28.036 8.652C28.172 8.332 28.312 7.94 28.456 7.476C28.64 6.908 28.796 6.296 28.924 5.64C29.052 4.976 29.144 4.328 29.2 3.696L31.204 3.756Z" fill="black"/>
<path d="M19.964 1C19.956 1.056 19.944 1.152 19.928 1.288C19.92 1.424 19.912 1.568 19.904 1.72C19.896 1.872 19.888 2.008 19.88 2.128C19.872 2.408 19.864 2.668 19.856 2.908C19.856 3.14 19.852 3.36 19.844 3.568C19.844 3.776 19.84 3.984 19.832 4.192C19.824 4.568 19.812 4.956 19.796 5.356C19.78 5.748 19.76 6.112 19.736 6.448C19.712 6.776 19.68 7.04 19.64 7.24C19.568 7.584 19.444 7.812 19.268 7.924C19.1 8.036 18.852 8.092 18.524 8.092C18.388 8.092 18.196 8.084 17.948 8.068C17.7 8.044 17.452 8.016 17.204 7.984C16.956 7.952 16.752 7.924 16.592 7.9L16.628 6.304C16.804 6.336 16.996 6.368 17.204 6.4C17.42 6.432 17.58 6.448 17.684 6.448C17.788 6.448 17.864 6.432 17.912 6.4C17.968 6.368 18 6.3 18.008 6.196C18.032 6.044 18.048 5.864 18.056 5.656C18.064 5.44 18.072 5.204 18.08 4.948C18.088 4.692 18.096 4.432 18.104 4.168C18.104 3.96 18.104 3.756 18.104 3.556C18.104 3.348 18.104 3.132 18.104 2.908C18.104 2.684 18.104 2.452 18.104 2.212C18.104 2.1 18.096 1.968 18.08 1.816C18.072 1.656 18.06 1.5 18.044 1.348C18.036 1.196 18.024 1.08 18.008 1H19.964ZM15.248 1.348C15.216 1.58 15.192 1.8 15.176 2.008C15.168 2.208 15.164 2.456 15.164 2.752C15.164 2.944 15.16 3.212 15.152 3.556C15.152 3.892 15.148 4.264 15.14 4.672C15.14 5.08 15.136 5.492 15.128 5.908C15.128 6.324 15.128 6.708 15.128 7.06C15.128 7.404 15.132 7.684 15.14 7.9C15.148 8.18 15.168 8.404 15.2 8.572C15.24 8.74 15.32 8.868 15.44 8.956C15.56 9.044 15.74 9.104 15.98 9.136C16.22 9.16 16.544 9.172 16.952 9.172C17.32 9.172 17.72 9.16 18.152 9.136C18.592 9.104 19.02 9.064 19.436 9.016C19.86 8.96 20.232 8.904 20.552 8.848L20.48 10.84C20.216 10.872 19.888 10.9 19.496 10.924C19.104 10.956 18.696 10.98 18.272 10.996C17.856 11.02 17.464 11.032 17.096 11.032C16.272 11.032 15.612 10.984 15.116 10.888C14.62 10.8 14.244 10.648 13.988 10.432C13.732 10.216 13.56 9.928 13.472 9.568C13.384 9.2 13.332 8.744 13.316 8.2C13.316 8.024 13.312 7.792 13.304 7.504C13.304 7.216 13.304 6.896 13.304 6.544C13.304 6.184 13.304 5.82 13.304 5.452C13.304 5.076 13.304 4.716 13.304 4.372C13.304 4.028 13.304 3.724 13.304 3.46C13.304 3.196 13.304 2.996 13.304 2.86C13.304 2.572 13.292 2.304 13.268 2.056C13.252 1.808 13.228 1.572 13.196 1.348H15.248ZM11 3.964C11.16 3.964 11.384 3.956 11.672 3.94C11.968 3.924 12.292 3.9 12.644 3.868C12.876 3.844 13.224 3.812 13.688 3.772C14.152 3.724 14.68 3.676 15.272 3.628C15.864 3.572 16.48 3.516 17.12 3.46C17.76 3.396 18.372 3.34 18.956 3.292C19.548 3.244 20.068 3.204 20.516 3.172C20.684 3.156 20.888 3.14 21.128 3.124C21.368 3.108 21.588 3.092 21.788 3.076V4.84C21.716 4.832 21.596 4.832 21.428 4.84C21.268 4.84 21.1 4.844 20.924 4.852C20.756 4.852 20.616 4.856 20.504 4.864C20.2 4.872 19.828 4.892 19.388 4.924C18.948 4.956 18.476 4.996 17.972 5.044C17.468 5.084 16.956 5.132 16.436 5.188C15.916 5.236 15.416 5.288 14.936 5.344C14.464 5.392 14.036 5.436 13.652 5.476C13.276 5.516 12.98 5.548 12.764 5.572C12.636 5.588 12.468 5.612 12.26 5.644C12.052 5.676 11.848 5.708 11.648 5.74C11.448 5.764 11.296 5.784 11.192 5.8L11 3.964Z" fill="black"/>
<path d="M0.84 4.024C1.288 4.072 1.792 4.108 2.352 4.132C2.912 4.156 3.516 4.168 4.164 4.168C4.564 4.168 4.98 4.16 5.412 4.144C5.852 4.128 6.276 4.108 6.684 4.084C7.1 4.06 7.464 4.032 7.776 4V5.944C7.496 5.968 7.148 5.992 6.732 6.016C6.316 6.04 5.884 6.06 5.436 6.076C4.988 6.084 4.568 6.088 4.176 6.088C3.536 6.088 2.944 6.076 2.4 6.052C1.856 6.02 1.336 5.988 0.84 5.956V4.024ZM2.148 9.244C2.1 9.444 2.056 9.636 2.016 9.82C1.984 10.004 1.968 10.192 1.968 10.384C1.968 10.72 2.14 11.004 2.484 11.236C2.828 11.46 3.404 11.572 4.212 11.572C4.748 11.572 5.268 11.552 5.772 11.512C6.276 11.472 6.756 11.416 7.212 11.344C7.676 11.272 8.1 11.188 8.484 11.092L8.496 13.156C8.112 13.236 7.7 13.304 7.26 13.36C6.82 13.424 6.352 13.472 5.856 13.504C5.368 13.536 4.844 13.552 4.284 13.552C3.316 13.552 2.512 13.444 1.872 13.228C1.24 13.02 0.768 12.716 0.456 12.316C0.152 11.908 0 11.416 0 10.84C0 10.472 0.028 10.14 0.084 9.844C0.148 9.548 0.2 9.292 0.24 9.076L2.148 9.244Z" fill="black"/>
<path d="M0.84 4.024C1.288 4.072 1.792 4.108 2.352 4.132C2.912 4.156 3.516 4.168 4.164 4.168C4.564 4.168 4.98 4.16 5.412 4.144C5.852 4.128 6.276 4.108 6.684 4.084C7.1 4.06 7.464 4.032 7.776 4V5.944C7.496 5.968 7.148 5.992 6.732 6.016C6.316 6.04 5.884 6.06 5.436 6.076C4.988 6.084 4.568 6.088 4.176 6.088C3.536 6.088 2.944 6.076 2.4 6.052C1.856 6.02 1.336 5.988 0.84 5.956V4.024ZM2.148 9.244C2.1 9.444 2.056 9.636 2.016 9.82C1.984 10.004 1.968 10.192 1.968 10.384C1.968 10.72 2.14 11.004 2.484 11.236C2.828 11.46 3.404 11.572 4.212 11.572C4.748 11.572 5.268 11.552 5.772 11.512C6.276 11.472 6.756 11.416 7.212 11.344C7.676 11.272 8.1 11.188 8.484 11.092L8.496 13.156C8.112 13.236 7.7 13.304 7.26 13.36C6.82 13.424 6.352 13.472 5.856 13.504C5.368 13.536 4.844 13.552 4.284 13.552C3.316 13.552 2.512 13.444 1.872 13.228C1.24 13.02 0.768 12.716 0.456 12.316C0.152 11.908 0 11.416 0 10.84C0 10.472 0.028 10.14 0.084 9.844C0.148 9.548 0.2 9.292 0.24 9.076L2.148 9.244Z" fill="#55C235"/>
<path d="M20.9151 1.60697L24.9841 3.08796L21.667 5.87131L20.9151 1.60697Z" fill="black"/>
</svg>
